<svg xmlns="http://www.w3.org/2000/svg" viewBox="0 0 48 48" width="22" height="22">
    <g>
        <path fill="#4285F4" d="M44.5 20H24v8.5h11.8C34.7 33.3 29.9 36 24 36c-6.6 0-12-5.4-12-12s5.4-12 12-12c3.1 0 5.9 1.1 8 3l6-6C34.4 5.5 29.5 3.5 24 3.5 12.7 3.5 3.5 12.7 3.5 24S12.7 44.5 24 44.5c11.1 0 20.1-8 20.1-20.1 0-1.3-.1-2.3-.3-3.4z"/>
        <path fill="#34A853" d="M6.3 14.7l6.6 4.8C14.6 16.2 19 13.5 24 13.5c3.1 0 5.9 1.1 8 3l6-6C34.4 5.5 29.5 3.5 24 3.5c-7.2 0-13.3 4.1-16.7 10.2z"/>
        <path fill="#FBBC05" d="M24 44.5c5.9 0 10.8-1.9 14.4-5.1l-6.6-5.4c-2.1 1.4-4.9 2.2-7.8 2.2-5.9 0-10.8-3.8-12.6-9l-6.7 5.2C7.9 40.2 15.4 44.5 24 44.5z"/>
        <path fill="#EA4335" d="M44.5 20H24v8.5h11.8c-1.2 3.2-4.2 5.5-8 5.5-2.9 0-5.7-.9-7.8-2.2l-6.6 5.4C13.9 42.9 18.7 44.5 24 44.5c8.6 0 16.1-4.3 20.1-10.7l-6.7-5.2c-.1-.1-.1-.2-.1-.3z"/>
        <path fill="none" d="M0 0h48v48H0z"/>
    </g>
</svg>